<?xml version="1.0" standalone="no"?>
<!DOCTYPE svg PUBLIC "-//W3C//DTD SVG 20010904//EN"
 "http://www.w3.org/TR/2001/REC-SVG-20010904/DTD/svg10.dtd">
<svg version="1.0" xmlns="http://www.w3.org/2000/svg"
 width="513.000000pt" height="513.000000pt" viewBox="0 0 513.000000 513.000000"
 preserveAspectRatio="xMidYMid meet">
<metadata>
Created by potrace 1.14, written by Peter Selinger 2001-2017
</metadata>
<g transform="translate(0.000000,513.000000) scale(0.100000,-0.100000)"
fill="#000000" stroke="none">
<path d="M1978 4734 c-2 -1 -37 -5 -78 -9 -85 -6 -187 -28 -239 -51 -190 -84
-266 -132 -368 -230 -85 -82 -162 -183 -204 -267 -44 -86 -68 -116 -113 -139
-53 -27 -67 -29 -159 -17 -103 13 -150 14 -210 5 -148 -23 -226 -110 -232
-262 -3 -92 12 -153 58 -237 44 -78 100 -142 191 -218 81 -68 72 -62 151 -114
62 -40 76 -49 205 -117 85 -45 102 -59 92 -73 -4 -6 -36 -33 -72 -60 -92 -70
-247 -228 -304 -308 -71 -101 -146 -252 -185 -372 -17 -53 -24 -85 -46 -195
-41 -209 -15 -487 67 -695 34 -86 124 -254 148 -275 3 -3 22 -27 42 -55 69
-95 238 -245 363 -322 182 -113 383 -188 605 -228 68 -12 103 -16 280 -32 96
-9 569 -9 690 0 165 12 242 20 310 33 8 2 35 6 60 9 120 16 352 76 500 130
527 189 908 540 1075 990 91 243 118 394 118 655 1 166 -5 235 -28 345 -58
282 -161 492 -324 667 -120 129 -190 162 -253 120 -24 -16 -108 -123 -108
-138 0 -8 -61 -94 -81 -114 -8 -9 -22 -25 -30 -36 -14 -20 -91 -84 -144 -119
-75 -51 -223 -101 -370 -124 -58 -9 -393 -8 -445 2 -14 3 -41 8 -60 11 -80 14
-130 28 -139 40 -8 9 9 37 64 106 41 51 81 108 90 126 8 18 20 36 25 39 6 4 8
11 5 16 -4 5 -2 9 2 9 5 0 24 42 42 93 18 50 36 99 39 107 34 94 42 298 17
460 -17 112 -89 285 -167 396 -127 185 -313 322 -538 397 -83 28 -126 36 -215
43 -33 2 -74 5 -92 8 -18 2 -34 2 -35 0z"/>
</g>
</svg>
